<svg xmlns="http://www.w3.org/2000/svg" viewBox="0 0 96.37 36.99"><title>Asset 1</title><g id="Layer_2" data-name="Layer 2"><g id="Layer_1-2" data-name="Layer 1"><path d="M59.85,9.52,61.11,8.1c-.47-.07-.87.26-1.28.47C59,9,58.12,9.53,57.28,10c-.32.19-.6.43-.9.65-.88.66-1.77,1.31-2.63,2-.49.39-.76,1.09-1.49,1.1a1.85,1.85,0,0,1-1-.23c-.66-.49-.82-.49-1.48,0-1.11.91-2.31,1.73-3.39,2.67a3,3,0,0,1-1.75.77c-.41,0-.55-.14-.72-.44s-.36-.47,0-.75c0,0,0-.11-.05-.26a2.8,2.8,0,0,0-.67.34C42,17,40.52,17.37,39.27,18.19a2.11,2.11,0,0,1-1.67.33.88.88,0,0,1-.51-1.35,7.75,7.75,0,0,1,2.42-2.28,14.13,14.13,0,0,0-3.84,1.23,4.7,4.7,0,0,1,.79.94,1.6,1.6,0,0,1-.34,1.64,5.73,5.73,0,0,0-.5,1.25,12.51,12.51,0,0,1-.87,2.31,12.22,12.22,0,0,1-1.81,2.14c-.69.7-1.47,1.31-2.2,2A15.08,15.08,0,0,1,29.11,28a49.28,49.28,0,0,1-4.28,2.6,40,40,0,0,1-3.74,1.6c-1.11.45-2.23.89-3.36,1.29-1,.35-2,.61-2.92.94-1.15.4-2.26.89-3.42,1.22s-2.48.55-3.72.82l-1.91.38a9,9,0,0,1-3.59,0,2.83,2.83,0,0,1-2-1.39,2.2,2.2,0,0,1-.12-1.34,5.75,5.75,0,0,1,2-3.28c.61-.5,1.12-1.14,1.74-1.63s1.33-.89,2-1.32a13.36,13.36,0,0,1-2.62-3.72,5.49,5.49,0,0,1,.92-5.33,13.09,13.09,0,0,1,4.68-3.7,28.31,28.31,0,0,1,4.14-1.83,36,36,0,0,1,4.81-1.21,32.36,32.36,0,0,1,5.16-.72,20,20,0,0,1,5.65.45,15.15,15.15,0,0,1,3.64,1.52c.24.13.35.49.57.69a2.91,2.91,0,0,0,.67.35c.22.75.54.85,1.41.53A16.12,16.12,0,0,1,38,13.76c.91-.14,1.79-.5,2.7-.7.53-.11,1.1,0,1.62-.17a22.39,22.39,0,0,0,2.21-.79c1.33-.49,2.63-1,4-1.45a1.88,1.88,0,0,1,1.79.25.54.54,0,0,0,.48,0c1-.53,1.91-1.11,2.88-1.63.77-.42,1.56-.78,2.35-1.15a.34.34,0,0,1,.33,0c.49.54.89.18,1.37,0,1.06-.52,2.17-1,3.25-1.44a9.22,9.22,0,0,1,3.65-.9,3.68,3.68,0,0,0,.63-.17c.21,0,.52-.1.62,0,.56.6,1.13.19,1.67.05,1.72-.45,3.41-1,5.12-1.43,1.26-.34,2.52-.68,3.79-.95Q79.38,2.59,82.33,2c1.73-.32,3.48-.54,5.21-.86A15.11,15.11,0,0,0,92.06,0c.15-.08.42,0,.63.08.85.27,1.32.81,1.23,1.37a1.6,1.6,0,0,1-2.15,1.28,1.14,1.14,0,0,0-1.16.15c-.31.23-.57.13-.87.14a23.16,23.16,0,0,0-2.49.18c-1.7.24-3.41.5-5.11.8-1.24.23-2.47.54-3.71.8-1.39.3-2.8.55-4.19.87-1.24.28-2.46.6-3.68.94s-2.27.66-3.4,1a1.08,1.08,0,0,0-.47.36,19.72,19.72,0,0,1-3.36,3,5,5,0,0,1-1.9.55.63.63,0,0,1-.5-.26c-.33-.54-1-.87-1-1.63C60,9.65,59.89,9.58,59.85,9.52ZM24.28,13a29.56,29.56,0,0,0-3.41,0,33.65,33.65,0,0,0-4.22.77,24.2,24.2,0,0,0-5.19,1.61,32.26,32.26,0,0,0-2.93,1.5,20.71,20.71,0,0,0-2.59,2,4.45,4.45,0,0,0-1.55,4.73,7.36,7.36,0,0,0,2.54,3.47A10,10,0,0,1,9,26.19c.76-.16,1.66-.51,2.34.3,0,0,.07,0,0,0,0-.33-.07-.64-.06-.95s.13-.53.12-.8a5.74,5.74,0,0,1,.67-2.67,9.07,9.07,0,0,1,2.5-3.52c.9-.65,1.67-1.47,2.56-2.15A17.76,17.76,0,0,1,22,13.86Zm8.56,2.73a19,19,0,0,0-1.9-1.27,9.35,9.35,0,0,0-2.41-.94A4.11,4.11,0,0,0,26,13.36a32.09,32.09,0,0,0-4.66,1.71,38.26,38.26,0,0,0-3.26,2.08,12.51,12.51,0,0,0-2.19,1.91A14.61,14.61,0,0,0,13.48,23,4.07,4.07,0,0,0,13,25.85l5.33-2.13a4.13,4.13,0,0,0,.08-.84,2.43,2.43,0,0,1,1.09-2.44,7.14,7.14,0,0,1,2.73-.72,5.8,5.8,0,0,1,1.78.18,1,1,0,0,0,.47,0l2.35-1c.56-.23,1.16-.39,1.69-.67C30,17.4,31.35,16.59,32.84,15.76ZM34,20.59l-.11-.1-1.2.35a4.25,4.25,0,0,1-2.36.38.74.74,0,0,0-.49.11c-.64.33-1.27.69-1.9,1-.46.25-.94.47-1.4.73a9.82,9.82,0,0,1-2.59,1.19c-.49.12-1,.35-1.45.49a5.51,5.51,0,0,1-1.94.42c-.61-.06-.62.24-.78.59a3.93,3.93,0,0,1-.47.68l-.75-.63-1.78,1.29a5.25,5.25,0,0,0,.95.57c1.28.44,2.66.43,4,.95.78.31,1.07.44,1.1,1.33.4-.17.77-.3,1.12-.48,1.11-.61,2.24-1.19,3.32-1.86.6-.37,1.08-.94,1.66-1.37a24.21,24.21,0,0,0,3.87-3.7A16,16,0,0,0,34,20.59ZM15.23,32.64c-1.27-.42-2.5-.81-3.72-1.24-.62-.22-1.22-.55-1.84-.81-.25-.1-.61-.3-.78-.2-.93.52-1.81,1.13-2.71,1.69s-1.74,1-2.6,1.55L1.82,34.69l0,.27a8.72,8.72,0,0,0,1.46.44,6.18,6.18,0,0,0,1.77.05A14.6,14.6,0,0,0,6.75,35c1.49-.39,3-.73,4.48-1.11,1.24-.32,2.47-.66,3.69-1A1.1,1.1,0,0,0,15.23,32.64Zm-5.14-3.17a3,3,0,0,0,.4.25c.82.37,1.63.76,2.47,1.09s1.49.52,2.24.75a7.47,7.47,0,0,0,1.32.32,4,4,0,0,0,2.5-.61c-.78-.05-1.46-.1-2.14-.12a4.66,4.66,0,0,1-3.48-1.24,6.66,6.66,0,0,1-.62-.56c-.34-.46-.63-1-1-1.47Zm38.43-17-.1-.22a.83.83,0,0,0-.35,0c-.92.3-1.84.59-2.74.94a1.59,1.59,0,0,0-1.18,2ZM13.18,27a12.91,12.91,0,0,0,1.45,1.61,6.41,6.41,0,0,0,2,1.07,9.71,9.71,0,0,0,2.17.14l0-.19c-.32-.07-.64-.12-.95-.2a13.21,13.21,0,0,1-2.26-.61,1.9,1.9,0,0,1-.91-1,4.49,4.49,0,0,1,0-1.42Zm18.34-7.69a3.76,3.76,0,0,0,2.4-1c.1-.1.23-.31.19-.39a.47.47,0,0,0-.4-.23,5.51,5.51,0,0,0-1.66.5C31.77,18.39,31.71,18.91,31.52,19.34ZM7.29,28.9c-1-.1-1.5.55-2,1l.08.14Z"/><path d="M94.38,7.67l-1.32.22a5.32,5.32,0,0,1-2,.27,8.54,8.54,0,0,0-2.54.23c-1.45.22-2.9.44-4.34.71-.65.12-1.29.37-1.93.55-.88.26-1.76.47-2.62.77-.61.21-1.18.53-1.78.78a15,15,0,0,1-1.82.73,1.61,1.61,0,0,1-1.4-.7,1.67,1.67,0,0,1,.66-1.55,3.47,3.47,0,0,1,1.65-.62c1.68-.4,3.33-.88,5-1.24s3.23-.59,4.85-.84,3.13-.43,4.69-.68c1.12-.18,2.23-.43,3.35-.65.79-.16,1.61.19,1.53,1.18a.76.76,0,0,1-.61.75,10.18,10.18,0,0,1-1.35.18Z"/></g></g></svg>