<svg xmlns="http://www.w3.org/2000/svg" viewBox="0 0 99.38 126.9"><defs><style>.cls-1{opacity:0.1;}.cls-2,.cls-3{fill:none;}.cls-2{stroke:#878e94;stroke-miterlimit:1;stroke-width:0.5px;fill-rule:evenodd;}.cls-4{fill:#231f20;}</style></defs><title>Asset 28</title><g id="Layer_2" data-name="Layer 2"><g id="Layer_1-2" data-name="Layer 1"><g class="cls-1"><path d="M98.93,0H0L.15,86s8.51,28.74,49.69,40.94c6-1,45.21-14.37,49.54-40.31ZM49.84,121.4C12.73,110.07,5.11,83.54,5.11,83.54L5,4.18H94l.44,80C90.46,108.13,55.11,120.42,49.84,121.4Z"/><path class="cls-2" d="M73.86,63.52C73.86,78,63.12,89.79,50,89.79S26.26,78,26.26,63.52,36.86,37.25,50,37.25,73.86,49,73.86,63.52Z"/><path d="M81.33,72.55a.68.68,0,0,1-.75.68A5.94,5.94,0,0,1,81,75.56c2.84-1.78,2.54-5.75,2.54-5.75A3.4,3.4,0,0,0,81.33,72.55Z"/><path d="M20.15,80.62s-.15-1-.15-1.23a1,1,0,0,1-.45-.68c0-2.33-.89-2.6-1.19-2.74a19.53,19.53,0,0,0-1.79-1.64A7.49,7.49,0,0,0,20.15,80.62Z"/><path d="M18.8,75.56c.15-1.23,0-1.91.45-2.32a.93.93,0,0,1-.9-.68c0-.69-.15-1.78-2.09-2.74C16.27,69.81,16,73.78,18.8,75.56Z"/><path d="M19.55,85.27a6.1,6.1,0,0,0-1.19.14s1.34,4.51,5.22,4.51a15.74,15.74,0,0,0-2.09-3.83A13.57,13.57,0,0,1,19.55,85.27Z"/><path d="M18.35,70.77c.15.82.3,2.05.75,1.92A5.39,5.39,0,0,0,20,66.81a5.15,5.15,0,0,0-1.34,3.69c-.3,0-.45-.27,0-1.78-.3-.82-.9-3.15-2.24-4.24A5.83,5.83,0,0,0,18.35,70.77Z"/><path d="M21.34,85.54c-.15-1.09-.59-3,.6-4.38a4.29,4.29,0,0,0,.45-3.56c-.3-1-.45-1.64-.6-2.05,0,0-1.64,2.74-1.49,3.56a9.14,9.14,0,0,0,.45,2.46c-.15.14-.15.28-.45-.13a21.78,21.78,0,0,0-1.79-1.78,3.13,3.13,0,0,0-1.2-.82s-.89,1.37.9,4.24C18.8,83.76,20.75,85.82,21.34,85.54Z"/><path d="M21.63,82.53a6.11,6.11,0,0,0,1,4.65c.15.14.6-.55,1-1.51.89-2.05-.15-4.79-.45-5.75C22.83,80.34,22.23,81.72,21.63,82.53Z"/><path d="M18.65,67.9l.3-.27c-.15-.55-1.2-3.28-.3-5.61l-.3-.55-.45-.82-.6-1.23s-1,2.47.6,6.3A8.61,8.61,0,0,1,18.65,67.9Z"/><path d="M19.25,67.07a8.07,8.07,0,0,0,1-4.78c0-1.1-.3-1-.6-1.1C17.9,63.66,19.25,67.07,19.25,67.07Z"/><path d="M19.85,78.29A23.81,23.81,0,0,0,21,75.83c.59-1.37.15-4.11,0-4.79C19.25,72.55,19.1,76,19.1,76,19.85,76.52,19.7,77.2,19.85,78.29Z"/><path d="M18.8,61.6a6.56,6.56,0,0,0,1.5-5.47C18.21,58,18.8,61.6,18.8,61.6Z"/><path d="M19.1,57a4.62,4.62,0,0,1-.45-1.37,1.17,1.17,0,0,0-.45-.82c-1,4,.15,5.61.15,5.61A8.23,8.23,0,0,1,19.1,57Z"/><path d="M20.3,50.8c-2.09,3.83-.9,5.61-.9,5.61A7,7,0,0,0,20.3,50.8Z"/><path d="M80,61.19c-.15.14-.45,0-.6,1.1a9.83,9.83,0,0,0,1.2,4.78S81.92,63.66,80,61.19Z"/><path d="M77.14,87.19a6.11,6.11,0,0,0,1-4.65c-.6-.82-1.2-2.19-1.64-2.6-.3,1-1.5,3.69-.45,5.75C76.55,86.64,76.85,87.32,77.14,87.19Z"/><path d="M79.83,78.29c.3-1.09.15-1.78.75-2.32,0,0,0-3.42-1.79-4.92a8.65,8.65,0,0,0,0,4.79C79.09,76.79,79.68,77.88,79.83,78.29Z"/><path d="M81.47,70.77a5.84,5.84,0,0,0,1.94-6.29c-1.34,1.09-1.94,3.42-2.24,4.24.45,1.5.3,1.78,0,1.78a5.15,5.15,0,0,0-1.34-3.69,5.39,5.39,0,0,0,.9,5.88C81,72.82,81.33,71.59,81.47,70.77Z"/><path d="M78.34,86.09a15.78,15.78,0,0,0-2.09,3.83c3.88,0,5.08-4.51,5.08-4.51a4,4,0,0,0-1-.14C80,85.41,79.09,85.82,78.34,86.09Z"/><path d="M81.47,76c-.3.14-1.19.41-1.34,2.74,0,.55-.3.68-.3.68,0,.27-.15,1.23-.15,1.23a7.5,7.5,0,0,0,3.58-6.29A9.73,9.73,0,0,0,81.47,76Z"/><path d="M79.38,56.13a7.18,7.18,0,0,0,1.49,5.47S81.62,58,79.38,56.13Z"/><path d="M81.33,79.66a21.81,21.81,0,0,0-1.79,1.78c-.45.41-.3.27-.45.13a9.36,9.36,0,0,0,.45-2.46c.15-.82-1.49-3.56-1.49-3.56-.15.41-.3,1.1-.6,2.05a4.51,4.51,0,0,0,.3,3.56c1.34,1.37.89,3.28.6,4.38.74.27,2.53-1.78,3.13-2.46,1.79-2.87,1-4.24,1-4.24A3.11,3.11,0,0,0,81.33,79.66Z"/><path d="M64.16,32.19c8.51,5.88,14.33,16.69,14.33,29,0,18.47-12.83,33.52-28.65,33.52s-28.65-15-28.65-33.52c0-12.45,5.82-23.26,14.32-29C22.83,38.62,13.88,53.26,13.88,70.5c0,23,16.12,41.59,36,41.59s36-18.61,36-41.59C85.8,53.4,76.85,38.62,64.16,32.19ZM24.47,84.72a7.5,7.5,0,0,1-1.49,3c.3.55,1.49,2.46.9,2.46,0,0-4.33.82-6-5.2h1.35a8.2,8.2,0,0,1-1.5-1.5,6.46,6.46,0,0,1-1-5.34,1,1,0,0,1,.59.27c-.45-1.1-1.64-3.83-1.19-4.78.15-.14.31,0,.45.14-.45-1.23-1.05-3.56-.6-4.52.3,0,.3,0,.6.28a6.55,6.55,0,0,1-.3-5.61,8.66,8.66,0,0,0,.9,1s-1.35-4.1,0-6.15l.29.41a11.58,11.58,0,0,1,.45-4.65,5.59,5.59,0,0,0,.15-.82c.15.41.45,1.09.6,1.09,0-.68.74-4.65,1.79-4.92a7.69,7.69,0,0,1-.3,5.75h.6a8,8,0,0,1-.75,5.2c.3,0,.45-.27.6,1.1a6.69,6.69,0,0,1-.6,4.51c.3,0,.75,0,.75,1.78A4.62,4.62,0,0,1,20.59,71a3.81,3.81,0,0,0,.45-.82c.3.55.89,1.37.59,4.52h.45c.3,1.1.45,1.78.6,2.33a4.19,4.19,0,0,1,.3,2.32c.45-.14.45-.27.45-.14A14.31,14.31,0,0,1,24.47,84.72Zm14,19.7a4.45,4.45,0,0,1-3.43,1.78H33.42V98.68h1.79v5.47a2.21,2.21,0,0,0,1.94-1.23,4.36,4.36,0,0,0,.9-2.73c0-1.51-.6-2.19-1.79-2.19H33.13l.44-1.91h3.28a2.79,2.79,0,0,1,2.24,1,5.23,5.23,0,0,1,.74,2.87A7.49,7.49,0,0,1,38.5,104.43Zm8.66-3.56V98.68h1.79v7.52H47.16v-3.42H44.62a10.14,10.14,0,0,0,.75,3.55l-1.49,1.24a12,12,0,0,1-1.2-4.93,7.63,7.63,0,0,1,1.5-4.93,4.48,4.48,0,0,1,3.73-1.64h1l.3,1.91H47.3a2.42,2.42,0,0,0-1.49.68,5.22,5.22,0,0,0-1,2.19Zm11,5.33H56.33V99.77h-.15l-1.64,2.74-1.49-2.74h-.3v6.43H51V96.08h1.79l1.79,3.15,1.79-3.15h1.79Zm9.17,0H65.51V99.77h-.15l-1.64,2.74-1.49-2.74h-.3v6.43H60.13V96.08h1.79l1.79,3.15,1.79-3.15H67.3Zm15.82-28a6.47,6.47,0,0,1-1,5.34A8.46,8.46,0,0,1,80.58,85h1.34c-1.64,6-6.12,5.2-6.12,5.2-.45,0,.75-1.91,1-2.46a7.45,7.45,0,0,1-1.49-3,11.83,11.83,0,0,1,1-5.47c0-.14,0,0,.45.14a4.21,4.21,0,0,1,.29-2.32c.15-.55.3-1.23.6-2.33H78a9.22,9.22,0,0,1,.59-4.52l.6.82a6,6,0,0,1-.3-2.88c.15-1.78.6-1.78.9-1.78a8.52,8.52,0,0,1-.75-4.51c.3-1.37.45-1.1.75-1.1a8,8,0,0,1-.75-5.2h.45c-1.34-2.46-.3-5.33-.15-5.75,1,.28,1.64,4.24,1.79,4.92a7,7,0,0,1,.6-1.09v.82a11.45,11.45,0,0,1,.6,4.65l.3-.41c1.19,2.05,0,6.15,0,6.15a11.18,11.18,0,0,1,.89-1,6.53,6.53,0,0,1-.44,5.61.85.85,0,0,1,.74-.28c.45,1-.15,3.29-.6,4.52.15-.14.3-.28.45-.14.44,1-.75,3.69-1.34,4.78A2,2,0,0,1,83.12,78.16Z"/><path d="M81.47,61.47c-.14.27-.3.55-.45.55.9,2.32,0,5.06-.15,5.61a.41.41,0,0,0,.15.27,18.29,18.29,0,0,1,.9-2.19c1.64-3.83.6-6.3.6-6.3l-.75,1.23A2.6,2.6,0,0,0,81.47,61.47Z"/><path d="M79.53,50.8a6.45,6.45,0,0,0,.89,5.61S81.62,54.63,79.53,50.8Z"/><path d="M81.47,60.37s1.2-1.64,0-5.61a1.94,1.94,0,0,0-.3.82A4.9,4.9,0,0,1,80.73,57,19.89,19.89,0,0,1,81.47,60.37Z"/><path class="cls-3" d="M36,53a4.35,4.35,0,0,0-.55,0c-.08.29-.17.57-.24.87.41.15.85.28,1.28.41C36.57,53.71,36.58,53.07,36,53Z"/><path class="cls-3" d="M34,64.32h2.19c-.11-.43-.46-1.77-.71-3.13a5.82,5.82,0,0,1,.3-4,15.16,15.16,0,0,0,.45-2.33l0-.11c-.43-.13-.86-.26-1.27-.41a39.38,39.38,0,0,0-1,9C34,63.7,34,64,34,64.32Z"/><path class="cls-3" d="M34.81,53c-.54,0-1.13.06-1.58.1q.68.29,1.4.56C34.68,53.4,34.75,53.18,34.81,53Z"/><path class="cls-3" d="M40.74,71.59c.75-1.37,1.5-1.09,2.09.14a15.06,15.06,0,0,0,1.5,2.18c.89,1,2.08-.41,2.68-1,.29-.41-.15-1.5,0-1.64-.75.82-1.64,1.51-2.68,1-.75-.28-1.2-1.92-1.65-2.6-.3-.41-1-1.1-1.49-.41-.89,1.23-1.34,2.05-2.54,1,.3.14-.29,1.23,0,1.64C39.54,72.69,40.14,72.55,40.74,71.59Z"/><path class="cls-3" d="M40.74,68.31c.75-1.23,1.34-1.09,2.09.14.6.82.9,1.64,1.5,2.33.89.82,2.08-.41,2.68-1.09.29-.28-.15-1.37,0-1.64-.75.82-1.64,1.64-2.68,1.1-.75-.41-1.2-1.92-1.65-2.6-.3-.55-1-1.23-1.49-.41-.89,1.1-1.34,2.05-2.54.82.3.13-.29,1.36,0,1.64C39.54,69.4,40.14,69.26,40.74,68.31Z"/><path class="cls-3" d="M40.74,74.74c.75-1.23,1.34-1,2.09.27.6.68.9,1.64,1.5,2.19.89.82,2.08-.41,2.68-1,.29-.41-.15-1.5,0-1.78-.75,1-1.64,1.64-2.68,1.09-.75-.41-1.2-1.91-1.65-2.6-.3-.41-1-1.23-1.49-.41-.89,1.1-1.34,2-2.54.82.3.28-.29,1.37,0,1.64C39.54,76,40.14,75.83,40.74,74.74Z"/><path class="cls-3" d="M34,64.91a39.4,39.4,0,0,0,1,7.45l.07,0,1.78-5.17a.85.85,0,0,0-.46-.22c-.33,0-.25-1.33-.19-2Z"/><path class="cls-3" d="M32.09,51.07c.14-1.23,0-2.05.14-2.74.25-.47,1.07-1.67.58-2.44A26.16,26.16,0,0,0,29.47,51a19.79,19.79,0,0,0,2.35,1.39A3.92,3.92,0,0,0,32.09,51.07Z"/><path class="cls-3" d="M37.92,80.21a21.41,21.41,0,0,0,4,5.36,18.12,18.12,0,0,1,3.65-1.92q-.51-1.56-.94-3.43Z"/><path class="cls-3" d="M46.11,83.44a13.16,13.16,0,0,1,3.59-.7V80.21H45.24C45.51,81.38,45.8,82.46,46.11,83.44Z"/><path class="cls-3" d="M43.83,56.41c-.1,1.33-.17,2.71-.21,4.12a12.18,12.18,0,0,1,4.8.56,18.33,18.33,0,0,0-1.94-4.41C45.59,56.61,44.7,56.52,43.83,56.41Z"/><path class="cls-3" d="M33.46,64.91H26.59A28,28,0,0,0,29,75.11a27.34,27.34,0,0,1,5.44-2.57A39.81,39.81,0,0,1,33.46,64.91Z"/><path class="cls-3" d="M51.93,54.63s1-4.37.75-4.79c-.15-.55-1.2-2.6-1.2-2.6s-1-.67-1.2-1.37v6.68l1.65,2.56Z"/><path class="cls-3" d="M33.43,63.38a39.79,39.79,0,0,1,1.06-9.19,24.23,24.23,0,0,1-5.27-2.66,28.08,28.08,0,0,0-2.65,12c0,.27,0,.54,0,.8h6.87C33.44,64,33.43,63.7,33.43,63.38Z"/><path class="cls-3" d="M32.38,80.21l2.32-6.75-.09-.33a26.45,26.45,0,0,0-5.34,2.52A24.84,24.84,0,0,0,40,87c.29-.26.77-.66,1.4-1.12a22.39,22.39,0,0,1-4.15-5.69Z"/><path class="cls-3" d="M66.06,59.43a38.49,38.49,0,0,0-.75-4.77l-.33.1.09.14a3.63,3.63,0,0,0,0,3A5,5,0,0,0,66.06,59.43Z"/><path class="cls-3" d="M64.18,68a17.66,17.66,0,0,0,.29-3.05H63.1Z"/><path class="cls-3" d="M65.17,54.09c-.22-.89-.47-1.74-.74-2.58a5,5,0,0,0-.26.51,5.4,5.4,0,0,0,.54,2.2Z"/><path class="cls-3" d="M70.87,51.46a26.58,26.58,0,0,0-1.79-3.16,8.14,8.14,0,0,0-4.24,2.59c.33,1,.63,2,.89,3A25.05,25.05,0,0,0,70.87,51.46Z"/><path class="cls-3" d="M59.16,55.55q2-.34,3.87-.83C61.86,54.18,59.58,53.48,59.16,55.55Z"/><path class="cls-3" d="M65.43,71.49c0-1.78-.19-3.68-.67-3.32a1.44,1.44,0,0,1-.42.25l1.09,3.09Z"/><path class="cls-3" d="M50.74,42s.11-2.29-.45-2.42v5.89s0,0,0-.06C50.44,44.78,50.74,42,50.74,42Z"/><path class="cls-3" d="M40.44,57.5c.45,2.47.74,3.29,1.34,3a.58.58,0,0,1,.59.16l.65-.08c0-1.46.11-2.88.21-4.25-1-.15-2-.33-3-.54A7.44,7.44,0,0,0,40.44,57.5Z"/><path class="cls-3" d="M44.67,46.42c-.28-.62-.7-1.12-1.24-.55a5.15,5.15,0,0,0-1.49,1.64L42.38,50s.61,1.2,1.41,1.25C44,49.5,44.33,47.89,44.67,46.42Z"/><path class="cls-3" d="M43.43,54.11l-.16.1s-1.19-1.23-1.94-.27c-.49.45-.9.7-1.06,1.27,1,.2,2,.39,3,.54Q43.35,54.92,43.43,54.11Z"/><path class="cls-3" d="M38.65,65.3c.9,1,1.49.82,2.09-.28s1.34-1,2.09.28c.6.68.9,1.51,1.5,2.19.89.82,2.08-.41,2.68-1.1.29-.27-.15-1.37,0-1.64-.75,1-1.64,1.64-2.68,1.09-.75-.41-1.2-1.92-1.65-2.6-.3-.55-1-1.23-1.49-.41-.89,1.09-1.34,2-2.54.82C38.95,63.93,38.35,65,38.65,65.3Z"/><path class="cls-3" d="M38.9,40.66a25.32,25.32,0,0,1,5.89-2.46A21.91,21.91,0,0,0,38.9,40.66Z"/><path class="cls-3" d="M62.23,62.42l.67,1.9h1.53c-.1-.78-.37-1.32-1-1.08a7.94,7.94,0,0,1-.3-4c.3-1.92.75-2,.75-2s.6-1.33-.15-2.09a42.78,42.78,0,0,1-4.62,1s0,.08,0,.12A25,25,0,0,1,58.95,59a5.3,5.3,0,0,0-.09,1.75C60.6,61.09,62,61.72,62.23,62.42Z"/><path class="cls-3" d="M56,80.21c-.29,1.3-.62,2.49-1,3.57a13.8,13.8,0,0,1,3.15,2,21.15,21.15,0,0,0,4.22-5.59Z"/><path class="cls-3" d="M59.69,65c.6,1.1,1.19,1.1,2.09.28.3-.28-.3-1.37,0-1.64-1.19,1.23-1.64.27-2.54-.82-.45-.82-1.19-.14-1.49.41a5.16,5.16,0,0,0-.29.48l.57.9C58.54,64,59.12,64.07,59.69,65Z"/><path class="cls-3" d="M50.89,80.21h-.6v2.52a11.17,11.17,0,0,1,4.15.8c.33-1,.63-2.11.9-3.32Z"/><path class="cls-3" d="M44.32,54.21a19.68,19.68,0,0,1,4.92-3.29l.45.71V40a9.09,9.09,0,0,0-1.5,1.54c-.15.27-1,2.59-1,2.59L46.56,46l-1.5,1.64,0-.1c-.25,1.2-.47,2.5-.66,3.86a4.83,4.83,0,0,1,.09,1.85,2.25,2.25,0,0,1-.38.38c-.08.72-.15,1.45-.22,2.19.72.09,1.45.16,2.18.22A7.11,7.11,0,0,0,44.32,54.21Z"/><path class="cls-3" d="M66.61,74.87l1.73,4.92a26.39,26.39,0,0,0,2.43-4,22.19,22.19,0,0,0-3.72-2Z"/><path class="cls-3" d="M71.12,52a25.79,25.79,0,0,1-5.26,2.48,39,39,0,0,1,.79,5,2.77,2.77,0,0,0,.95-1,19.68,19.68,0,0,0,.6-2.05l-.3-1.09s1.64,0,1.94,1.09a8.09,8.09,0,0,0,.6,1.78,7.58,7.58,0,0,1-.3,2.19c-.1.57-.63,2.49-.95,3.95h4.37c0-.27,0-.53,0-.8A28,28,0,0,0,71.12,52Z"/><path class="cls-3" d="M68.94,65.85c0,1.1-.89,4.38-.89,4.92a5.47,5.47,0,0,1-.45,1.64l-.32.83a22.9,22.9,0,0,1,3.75,2,27.85,27.85,0,0,0,2.51-10.33H69.07A5.84,5.84,0,0,0,68.94,65.85Z"/><path class="cls-3" d="M58.57,86.18q.53.48,1.05,1a24.07,24.07,0,0,0,8.41-7H63A22.11,22.11,0,0,1,58.57,86.18Z"/><path class="cls-3" d="M60.27,73.74a8.41,8.41,0,0,1-1-1.19c-.45-.82-1.19,0-1.49.41a16.2,16.2,0,0,1-1.64,2.6c-.9.82-2.09-.41-2.69-1.09.15.27-.3,1.37,0,1.78.75.82,1.65,1.51,2.69,1,.74-.27,1-1.64,1.49-2.19.6-1.23,1.35-1.5,2.09-.27s1.19,1.1,2.09.27a.35.35,0,0,0,.08-.25A1.46,1.46,0,0,1,60.27,73.74Z"/><path class="cls-3" d="M58,69.42a2.41,2.41,0,0,0-.22.25,11.93,11.93,0,0,1-1.64,2.6c-.9,1-2.09-.41-2.69-1,.15.14-.3,1.23,0,1.64.75.82,1.65,1.51,2.69,1,.74-.27,1-1.5,1.49-2.18.6-1.23,1.35-1.51,2.09-.14a2.24,2.24,0,0,0,.53.62,6.07,6.07,0,0,1,.22-.89A3.87,3.87,0,0,0,58,69.42Z"/><path class="cls-3" d="M61.78,70.22l-.09.08,0,0A.15.15,0,0,1,61.78,70.22Z"/><path class="cls-3" d="M56.11,69.13c-.65.6-1.46.11-2.08-.46l-.62,0c-.07.41-.17.89,0,1.06.75.82,1.65,1.64,2.69,1.09a3.31,3.31,0,0,0,1.1-1.58c-.32-.09-.64-.16-1-.22Z"/><path class="cls-3" d="M61.78,68.58c.3-.28-.3-1.51,0-1.64-1.19,1.23-1.64.27-2.54-.82a.6.6,0,0,0-.48-.37l2.17,3.37A2.26,2.26,0,0,0,61.78,68.58Z"/><path d="M56.11,69.13l.12-.16a21.63,21.63,0,0,0-2.21-.3C54.65,69.24,55.45,69.73,56.11,69.13Z"/><path d="M50,37C36.75,37,26,48.87,26,63.52c0,10.73,5.79,20,14.09,24.18a6.76,6.76,0,0,0,2.35,1A21.84,21.84,0,0,0,50,90.08c13.33,0,24.17-11.92,24.17-26.56S63.32,37,50,37ZM69.07,48.31a26.58,26.58,0,0,1,1.79,3.16,25.05,25.05,0,0,1-5.15,2.44c-.26-1-.55-2-.89-3A8.14,8.14,0,0,1,69.07,48.31ZM64.76,68.17c.48-.36.65,1.54.67,3.32v0l-1.09-3.09A1.44,1.44,0,0,0,64.76,68.17ZM64.18,68,63.1,64.91h1.36A17.66,17.66,0,0,1,64.18,68Zm.88-10.05a3.63,3.63,0,0,1,0-3L65,54.76l.33-.1a38.49,38.49,0,0,1,.75,4.77A5,5,0,0,1,65.06,57.91Zm-.64-6.39c.27.84.53,1.69.74,2.58l-.46.14a5.4,5.4,0,0,1-.54-2.2A5,5,0,0,1,64.42,51.51ZM63,54.72q-1.85.49-3.87.83C59.58,53.48,61.86,54.18,63,54.72ZM58.95,59a25,25,0,0,0,.14-2.74s0-.08,0-.12a42.78,42.78,0,0,0,4.62-1c.74.76.15,2.09.15,2.09s-.45.13-.75,2a7.94,7.94,0,0,0,.3,4c.63-.24.91.29,1,1.08H62.9l-.67-1.9c-.28-.7-1.63-1.33-3.37-1.67A5.3,5.3,0,0,1,58.95,59ZM50.28,39.62c.57.13.45,2.42.45,2.42s-.3,2.74-.45,3.42c0,0,0,0,0,.06ZM44.79,38.2a25.32,25.32,0,0,0-5.89,2.46A21.91,21.91,0,0,1,44.79,38.2Zm-4.52,17c.16-.57.56-.82,1.06-1.27.75-1,1.94.27,1.94.27l.16-.1q-.08.8-.15,1.63C42.25,55.6,41.25,55.42,40.27,55.21Zm3,1.12c-.1,1.37-.17,2.79-.21,4.25l-.65.08a.58.58,0,0,0-.59-.16c-.6.27-.9-.55-1.34-3a7.44,7.44,0,0,1-.24-1.71C41.19,56,42.2,56.19,43.24,56.33ZM42.38,50l-.45-2.46a5.15,5.15,0,0,1,1.49-1.64c.54-.57,1-.06,1.24.55-.34,1.47-.64,3.07-.88,4.8C43,51.18,42.38,50,42.38,50ZM38.65,63.66c1.19,1.23,1.64.27,2.54-.82.45-.82,1.2-.14,1.49.41.45.68.89,2.19,1.65,2.6,1,.54,1.94-.14,2.68-1.09-.15.27.29,1.36,0,1.64-.6.68-1.79,1.92-2.68,1.1-.6-.68-.9-1.51-1.5-2.19-.75-1.23-1.34-1.51-2.09-.28s-1.19,1.23-2.09.28C38.35,65,38.95,63.93,38.65,63.66Zm0,3.29c1.19,1.23,1.64.27,2.54-.82.45-.82,1.2-.14,1.49.41.45.69.89,2.19,1.65,2.6,1,.55,1.94-.27,2.68-1.1-.15.27.29,1.36,0,1.64-.6.68-1.79,1.91-2.68,1.09-.6-.68-.9-1.5-1.5-2.33-.75-1.23-1.34-1.37-2.09-.14-.6,1-1.19,1.09-2.09.28C38.35,68.31,38.95,67.07,38.65,66.94Zm0,3.28c1.19,1.09,1.64.27,2.54-1,.45-.68,1.2,0,1.49.41.45.68.89,2.32,1.65,2.6,1,.55,1.94-.14,2.68-1-.15.14.29,1.23,0,1.64-.6.55-1.79,1.92-2.68,1a15.06,15.06,0,0,1-1.5-2.18c-.59-1.23-1.34-1.51-2.09-.14-.6,1-1.19,1.1-2.09.27C38.35,71.45,38.95,70.36,38.65,70.22Zm0,3.15c1.19,1.23,1.64.28,2.54-.82.45-.82,1.2,0,1.49.41.45.69.89,2.19,1.65,2.6,1,.55,1.94-.14,2.68-1.09-.15.27.29,1.37,0,1.78-.6.55-1.79,1.78-2.68,1-.6-.55-.9-1.51-1.5-2.19-.75-1.23-1.34-1.5-2.09-.27S39.54,76,38.65,75C38.35,74.74,38.95,73.65,38.65,73.37Zm-2.24-6.43a.85.85,0,0,1,.46.22l-1.78,5.17-.07,0a39.4,39.4,0,0,1-1-7.45h2.17C36.16,65.62,36.08,66.94,36.41,66.94Zm-1-14A4.35,4.35,0,0,1,36,53c.61.08.6.72.5,1.24-.43-.13-.87-.27-1.28-.41C35.25,53.52,35.34,53.24,35.42,53Zm.89,1.84,0,.11a15.16,15.16,0,0,1-.45,2.33,5.82,5.82,0,0,0-.3,4c.25,1.36.6,2.7.71,3.13H34c0-.31,0-.62,0-.94a39.38,39.38,0,0,1,1-9C35.45,54.53,35.88,54.66,36.3,54.79ZM34.81,53c-.06.22-.13.44-.18.66q-.72-.27-1.4-.56C33.68,53,34.27,53,34.81,53Zm-2-7.07c.49.77-.33,2-.58,2.44-.14.68,0,1.5-.14,2.74a3.92,3.92,0,0,1-.27,1.33A19.79,19.79,0,0,1,29.47,51,26.16,26.16,0,0,1,32.81,45.89ZM26.56,63.52a28.08,28.08,0,0,1,2.65-12,24.23,24.23,0,0,0,5.27,2.66,39.79,39.79,0,0,0-1.06,9.19c0,.31,0,.63,0,.94H26.58C26.57,64.05,26.56,63.79,26.56,63.52Zm0,1.39h6.87a39.81,39.81,0,0,0,1,7.63A27.34,27.34,0,0,0,29,75.11,28,28,0,0,1,26.59,64.91ZM40,87A24.84,24.84,0,0,1,29.28,75.64a26.45,26.45,0,0,1,5.34-2.52l.09.33-2.32,6.75h4.89a22.39,22.39,0,0,0,4.15,5.69C40.79,86.36,40.31,86.76,40,87Zm1.88-1.45a21.41,21.41,0,0,1-4-5.36h6.69q.42,1.87.94,3.43A18.12,18.12,0,0,0,41.9,85.57Zm7.79-2.82a13.16,13.16,0,0,0-3.59.7c-.31-1-.6-2.06-.87-3.23H49.7Zm0-14.16a33.1,33.1,0,0,0-1.27-7.49,12.18,12.18,0,0,0-4.8-.56c0-1.4.11-2.78.21-4.12.87.11,1.76.2,2.65.26q-.21-.34-.42-.63c-.73-.06-1.46-.13-2.18-.22.06-.75.14-1.48.22-2.19a2.25,2.25,0,0,0,.38-.38,4.83,4.83,0,0,0-.09-1.85c.19-1.36.41-2.66.66-3.86l0,.1L46.56,46l.6-1.92s.89-2.33,1-2.59A9.09,9.09,0,0,1,49.7,40V51.64l.59.91V45.87c.16.7,1.2,1.37,1.2,1.37s1,2.05,1.2,2.6c.3.41-.75,4.79-.75,4.79v.49l5.53,8.61a5.16,5.16,0,0,1,.29-.48c.3-.55,1-1.23,1.49-.41.9,1.09,1.35,2,2.54.82-.3.27.3,1.37,0,1.64-.9.82-1.49.82-2.09-.28s-1.15-1-1.66-.4l.73,1.14a.6.6,0,0,1,.48.37c.9,1.1,1.35,2.05,2.54.82-.3.13.3,1.36,0,1.64a2.26,2.26,0,0,1-.85.54l.76,1.18.09-.08a.15.15,0,0,0-.07.11l1.86,2.9-.14,1.23a5.18,5.18,0,0,1-1.56.29.35.35,0,0,1-.08.25c-.9.82-1.49.82-2.09-.27s-1.49-1-2.09.27c-.45.55-.75,1.92-1.49,2.19-1,.55-1.94-.14-2.69-1-.3-.41.15-1.5,0-1.78.6.68,1.79,1.91,2.69,1.09A16.2,16.2,0,0,0,57.75,73c.3-.41,1-1.23,1.49-.41a8.41,8.41,0,0,0,1,1.19,3.41,3.41,0,0,1,0-1.53,2.24,2.24,0,0,1-.53-.62c-.74-1.37-1.49-1.09-2.09.14-.45.68-.75,1.92-1.49,2.18-1,.55-1.94-.13-2.69-1-.3-.41.15-1.5,0-1.64.6.55,1.79,1.92,2.69,1a11.93,11.93,0,0,0,1.64-2.6,2.41,2.41,0,0,1,.22-.25q-.36-.13-.76-.23a3.31,3.31,0,0,1-1.1,1.58c-1,.55-1.94-.27-2.69-1.09-.18-.17-.08-.65,0-1.06A33.66,33.66,0,0,0,49.69,68.58Zm.59,14.15V80.21h5.05c-.27,1.21-.58,2.32-.9,3.32A11.17,11.17,0,0,0,50.28,82.73Zm4.7,1c.36-1.07.69-2.26,1-3.57h6.39a21.15,21.15,0,0,1-4.22,5.59A13.8,13.8,0,0,0,55,83.77Zm4.64,3.44q-.53-.56-1.05-1a22.11,22.11,0,0,0,4.44-6h5A24.07,24.07,0,0,1,59.62,87.21Zm8.73-7.42-1.73-4.92.45-1.08a22.19,22.19,0,0,1,3.72,2A26.39,26.39,0,0,1,68.34,79.79ZM71,75.24a22.9,22.9,0,0,0-3.75-2l.32-.83A5.47,5.47,0,0,0,68,70.77c0-.55.89-3.83.89-4.92a5.84,5.84,0,0,1,.13-.94h4.47A27.85,27.85,0,0,1,71,75.24ZM69.19,64.32c.32-1.46.85-3.38.95-3.95a7.58,7.58,0,0,0,.3-2.19,8.09,8.09,0,0,1-.6-1.78c-.3-1.09-1.94-1.09-1.94-1.09l.3,1.09a19.68,19.68,0,0,1-.6,2.05,2.77,2.77,0,0,1-.95,1,39,39,0,0,0-.79-5A25.79,25.79,0,0,0,71.12,52a28,28,0,0,1,2.45,11.52c0,.27,0,.54,0,.8Z"/><path d="M61.83,75a1.83,1.83,0,0,1-1.37-.49c-.89-.91-.37-2.75-.24-3.14-1.38-3-10.43-2.55-10.52-2.55l-.21-.18c-.73-11.23-5.23-14.18-5.28-14.21l0-.31a20.09,20.09,0,0,1,5-3.32l.24.07,14.32,22.3,0,.13-.14,1.23-.13.16A5.45,5.45,0,0,1,61.83,75Zm-10.6-6.61c2.77,0,8.33.33,9.38,2.89v.14s-.69,2,.12,2.82c.45.46,1.29.5,2.5.12l.12-1L49.17,51.18a20,20,0,0,0-4.54,3c.92.71,4.54,4.12,5.24,14.18C50.13,68.36,50.61,68.35,51.23,68.35Z"/><path class="cls-4" d="M52.37,67.35,50.44,64.2,50,63.66V62.56L48.5,60.1l.3-.27.74.69L50,61.74l.6,1.51.74,1.64L52.68,66v1.23Z"/><path d="M52.37,67.35,50.44,64.2,50,63.66V62.56L48.5,60.1l.3-.27.74.69L50,61.74l.6,1.51.74,1.64L52.68,66v1.23"/><path d="M53.12,66l-.6-.68-.75-1-1-1.92-.6-1.09a1,1,0,0,1-.6-.82,3.06,3.06,0,0,0-.44-1.37c-.15-.27-.45-.68-.45-.68l.89,1.23.9,1.09.89,1.51.9,1.5.3.55.3.28.45,1.09Z"/><path d="M54.32,66.94l.59-.14a7.74,7.74,0,0,0-.59-1.1c-.15-.14-1.34-2.05-1.49-2.33a24.73,24.73,0,0,1-1.5-2.19,9,9,0,0,1-1.19-1.5,18.71,18.71,0,0,0-1-2.19l-.3-.41.15.55,1.19,2.46,1.49,2.06.89,1.64s1.19,1.23.89,1.64c-.15.27.9,1.51.9,1.51Z"/><path d="M55.81,66.94l.6-.14s-.45-1-.75-1.1c-.15-.14-1.34-2.05-1.49-2.33a25.14,25.14,0,0,1-1.49-2.19s-.9-1.1-1.2-1.5-.89-2.19-.89-2.19l-.45-.41.15.55,1.19,2.46,1.64,2.06.75,1.64s1.2,1.23,1,1.64.9,1.51.9,1.51Z"/><path d="M33.57,45.19s7,10.12,7.32,10.53c0,0,.74,1.51,2.24-.27l1.2-1.23,5.21-3.55s1.79-1,.45-2.33l-13-20,2.53,4.51L37,29.59l1.34,2.6-.6-.14.75,1,7.76,12.45,2.83,4.25a.81.81,0,0,1-.9,1S44,53.94,43.13,54.49l-3.73-5.33,2.54,4.38-.15.28-3.14-4.52-.15.41,1,2.18-5.37-7.25.3,1.1-.6-.82-.45.14Z"/><path d="M45.45,15.33a4,4,0,0,1,1,.49,3.77,3.77,0,0,1,.67.61l-.16-1.95A5.74,5.74,0,0,0,45.45,15.33Z"/><path d="M20.19,26.52a.51.51,0,0,0,.2-.35.43.43,0,0,0-.12-.34.39.39,0,0,0-.22-.13.41.41,0,0,1,.07.39.74.74,0,0,1-.23.36.43.43,0,0,1-.23.1l.09.09A.94.94,0,0,0,20.19,26.52Z"/><path d="M52.28,13.77a2.68,2.68,0,0,1,.38.43A1.92,1.92,0,0,1,53,15.42l0,.13.21.2.18.18a3.29,3.29,0,0,1,.25.3l.17-2.63-1.81-.12Z"/><path d="M26.19,19.83l.5-.07,0,0a9,9,0,0,0,.81.69,1.72,1.72,0,0,0,.46.24,2.42,2.42,0,0,0,.56.12,1.86,1.86,0,0,0,1.08-.19c.43-.22.54-.5.35-.87a1.19,1.19,0,0,0-.3-.34c-.1-.09-.24-.18-.34-.14s-.05,0-.12.27A.6.6,0,0,1,29,20c-.67.34-1,.12-1.09-.13a.64.64,0,0,1-.06-.5,1.09,1.09,0,0,1,.6-.58l.2-.07.26-.06a1.09,1.09,0,0,1,.47,0,2.69,2.69,0,0,1,.81.34,1.81,1.81,0,0,1,.51.63l.64.34-1.13-2.18Z"/><path d="M59.31,16.62a1.15,1.15,0,0,1-.17-.53.26.26,0,0,1,0-.05v0a.19.19,0,0,1,0-.06l.34-1.48L58,14.13H58l.33.27v.06a2.2,2.2,0,0,0,0,.67s0,.19.11.71a2.07,2.07,0,0,0,.07.3,3,3,0,0,0,.1.29,3.17,3.17,0,0,0,.22.43,1.52,1.52,0,0,0,.23.29,1.29,1.29,0,0,0,.34.23,2.17,2.17,0,0,0,.45.15A1.29,1.29,0,0,0,61,17.31a1.32,1.32,0,0,0,.18-.22.55.55,0,0,0,.07-.15.75.75,0,0,0,0-.4,2,2,0,0,1-.6.3,1.74,1.74,0,0,1-.88.14A.76.76,0,0,1,59.31,16.62Z"/><path d="M19.3,28a3.74,3.74,0,0,1,.91,0l-1-1H19l-.26-.3a5.79,5.79,0,0,0-.53,1.48A4,4,0,0,1,19.3,28Z"/><path d="M84.57,29.54a2.27,2.27,0,0,1,0,.27,1.13,1.13,0,0,1-.12.31.93.93,0,0,1-.18.22l.17.05a.75.75,0,0,1,.36.24.55.55,0,0,1,.11.47l-.05.39.88-.73-1.1-1.31S84.58,29.51,84.57,29.54Z"/><path d="M89.68,13.31,86.44,25.08C77.06,13.93,63.82,7,49.24,7s-27.62,6.86-37,17.8L9.1,12.9,5.33,34.76l-.25.44,9.25,11.63c6.27-14.77,19.55-25,34.92-25,15.52,0,28.95,10.54,35.07,25.59l9.25-11.63ZM20.14,29.86a.75.75,0,0,1-.43.22h-.07a.51.51,0,0,1-.37-.17.48.48,0,0,1-.13-.4.67.67,0,0,1,.2-.4.66.66,0,0,1,.41-.18.49.49,0,0,1,.4.15.52.52,0,0,1,.16.38A.55.55,0,0,1,20.14,29.86Zm5.63-4.93-1.48-2h0l-.14-.07a.54.54,0,0,0-.59.06s-.07.05,0,.2a.58.58,0,0,0,.1.24l.22.18-.22.33-.08,0a1.5,1.5,0,0,0-.59-.22.92.92,0,0,0-.61.21.76.76,0,0,0-.31.49.63.63,0,0,0,.12.52.42.42,0,0,0,.54.15.42.42,0,0,1-.15-.12.53.53,0,0,1-.08-.45.63.63,0,0,1,.84-.48.84.84,0,0,1,.45.31.53.53,0,0,1,0,.57,1.06,1.06,0,0,1-.35.44,1.67,1.67,0,0,1-.51.26,1.48,1.48,0,0,1-.41.06h-.12a1.22,1.22,0,0,1-.88-.52,1.41,1.41,0,0,1-.29-.86,1,1,0,0,1,.42-.87,1.29,1.29,0,0,1,1.07-.27.87.87,0,0,1,0-.29.74.74,0,0,1,.22-.4.79.79,0,0,1,.48-.17h0l.2,0,.19.06-.43-.58L20.9,23.56h0L19,25.21H19l-.32.31.42.43a.66.66,0,0,1,0-.11.83.83,0,0,1,.12-.28,1.13,1.13,0,0,1,.18-.2,1,1,0,0,1,.23-.14,1.1,1.1,0,0,1,.27-.09,1.24,1.24,0,0,1,.31,0,1,1,0,0,1,.25,0,1.21,1.21,0,0,1,.24.11,1.08,1.08,0,0,1,.24.21.88.88,0,0,1,.17.28.86.86,0,0,1,.05.26,1.32,1.32,0,0,1,0,.27,1,1,0,0,1-.14.34l-.07.1a.5.5,0,0,1-.12.11,1.29,1.29,0,0,1-.62.23l1.67,1.7h-.23a1.65,1.65,0,0,1-.39-.05l-.69-.16a2.77,2.77,0,0,0-1.57.2,1.91,1.91,0,0,0-.33.17,1.86,1.86,0,0,0-.3.24l0,0-1.14-.12,0-.11a12.76,12.76,0,0,1,1.08-2.89L18.16,26l-1.77,1.74-.8.9,3.37,3-.82.17,0,0-2.29-2a1,1,0,0,0-.28-.19.83.83,0,0,0-.23-.06H15l-.19,0-.07.08H14.7L12.8,32,14,33c0-.18,0-.48,0-.91a6.23,6.23,0,0,1,.28-1.46v-.05l1.08-.35,0,.08a7.56,7.56,0,0,0,.54,1,2.64,2.64,0,0,0,.33.38,5.89,5.89,0,0,0,.47.4l.2.12.29.15a2.37,2.37,0,0,0,.51.18l.22,0-.52.39h0a6.39,6.39,0,0,1-2-1,1.34,1.34,0,0,1-.19-.2l-.17-.22A2.83,2.83,0,0,0,15,32.56a2.64,2.64,0,0,0,.34,1.19l.07.12L14.31,34l-1.92-1.49L12,33l-.9.14,2.69-3.46h0l0-.05.56-.72.41-.07-.07,0L14,28.07,14.4,28l.06,0,.19.12.11.06a.62.62,0,0,0,.32,0l.12-.14H15.1l3-2.93h0l0,0,.61-.6h.08l.75-.65h-.15l4.72-3.52.91.11-1.1.82,2.69,3.61Zm20.52-7.37a.55.55,0,0,1-.39.2h-.07a.73.73,0,0,1-.4-.11.51.51,0,0,1-.23-.4.48.48,0,0,1,.16-.4.67.67,0,0,1,.41-.18.64.64,0,0,1,.43.12.5.5,0,0,1,.21.37A.52.52,0,0,1,46.28,17.56ZM47.9,18l-.18-.15a2.07,2.07,0,0,1-.26-.29L47,17a2.78,2.78,0,0,0-1.34-.85,1.81,1.81,0,0,0-.75-.09h0l-.8-.82.09-.07a12.71,12.71,0,0,1,2.69-1.53v-.12l-2.48.2-1.19.18.67,4.46L43.12,18v0l-.46-3a1,1,0,0,0-.1-.33.8.8,0,0,0-.13-.19l-.05-.06-.06-.06-.11-.08L42,14.07h-.1l0,0-1.63.35.08,0,.34,0a1.26,1.26,0,0,1,.42.11,1.64,1.64,0,0,1,.38.23,1.3,1.3,0,0,1,.48.7c.13.6-.18,1.15-.93,1.62l.15.07.44.18.44.17.31.14.53.29.45.88L43,18.64a5.09,5.09,0,0,0-1.12-.54,9.47,9.47,0,0,0-1.49-.38l-.36,0-.64,0h0l-1-1.23.32.1a2.65,2.65,0,0,0,1.35.07,1.42,1.42,0,0,0,.43-.14c.68-.48.75-.74.72-.85a.59.59,0,0,0-.25-.37.54.54,0,0,0-.44-.08l-.1,0a.81.81,0,0,1-.19.59,1,1,0,0,1-.61.41c-.52.11-.69-.14-.74-.38a.73.73,0,0,1,.07-.4,1.05,1.05,0,0,1,.38-.55l.3-.18.06,0a.45.45,0,0,0-.17-.06L38,14.91l0,0-2.29.75-.09.1a.16.16,0,0,0,0,.05c0,.14.17.22.37.24a1.35,1.35,0,0,0,.58-.07,2,2,0,0,0,.84-.49l.05-.05,1,.5,0,.09a2.35,2.35,0,0,0-.16.47,2.4,2.4,0,0,0-.06.55,3.11,3.11,0,0,0,.15,1,1.51,1.51,0,0,0,.26.46A4.11,4.11,0,0,0,39,19l.13.11-.16.05a.85.85,0,0,1-.59,0h0l-.86-1.29-.12-.35a1.47,1.47,0,0,1-.06-.3,3,3,0,0,1,0-.39,2.8,2.8,0,0,1,0-.4l0-.11-.22.08-.22.08a2.16,2.16,0,0,1-1.19.05,2,2,0,0,1-.66-.37s-.12,0-.23.48a1.36,1.36,0,0,0-.08.64c0,.06.05.17.3.09a1.53,1.53,0,0,0,.44-.34c.34-.31.38-.32.41-.33a.4.4,0,0,1,.32,0,1.85,1.85,0,0,1,.94,1,1.63,1.63,0,0,1,0,.56.68.68,0,0,1-.1.33,1.72,1.72,0,0,1-.37.43,1.51,1.51,0,0,1-.5.27,1.84,1.84,0,0,1-.57.09,2.52,2.52,0,0,1-1.89-1.1,3.32,3.32,0,0,1-.26-.36,2,2,0,0,1-.18-.36l-.05-.16-.08-.24,0-.09,0-.13,0-.11,0-.07,0-.2.14,0a.65.65,0,0,1,.5.41l.07.19.11.26.29.4a1.94,1.94,0,0,0,1,.6,1.08,1.08,0,0,0,.65,0,1.52,1.52,0,0,0,.3-.13,1.81,1.81,0,0,0,.27-.2c.19-.17.26-.32.22-.45a.24.24,0,0,0-.1-.12l0,0s0-.05-.11,0a1.42,1.42,0,0,0-.33.21,1.57,1.57,0,0,1-.43.25,1.13,1.13,0,0,1-.93-.09,1.18,1.18,0,0,1-.58-.68,1.13,1.13,0,0,1,0-.73l.1-.24.1-.21-1,.33h0l-1.3.55,1.77,4.15L33,20.9,31.8,18a1,1,0,0,0-.18-.29.79.79,0,0,0-.18-.15l-.07,0-.07,0-.13-.05-.19,0-.09,0-.08,0,0,0,2.11,4.06-.24-.09-.29-.13a.53.53,0,0,1-.15-.1L32,21l-.24-.21a2.68,2.68,0,0,0-.94-.42,1.33,1.33,0,0,1-.28.69,2.25,2.25,0,0,1-.7.51l-.11,0-.13,0-.45.06H29l-.18,0-.15,0-.24-.08A6.19,6.19,0,0,1,26.26,20l-.12-.12,0,0-.89-.25,5.89-3.06.08,0-.36-.84.45.11,0,0,.14.22.07.11a.63.63,0,0,0,.27.18l.22-.1-.17-.07,5.39-1.77,0,0,.34-.07.63-.21.11,0,2.92-.63h0l.13,0,.8-.17.41.24,0-.13-.16-1.07.41.22,0,.08.06.21,0,.12a.63.63,0,0,0,.21.24l.19,0-.08-.07,5-.41.7.57-1.36.11Zm18.9-1.33-1.49,4.25-.47-.69,0,0,.8-2.29h0s0,0,0,0l0-.15a.54.54,0,0,0-.38-.45s-.08,0-.19.07a.57.57,0,0,0-.15.22l0,.29h-.4v-.09a1.5,1.5,0,0,0-.15-.61.91.91,0,0,0-.51-.39.77.77,0,0,0-.58,0,.63.63,0,0,0-.37.39.42.42,0,0,0,.18.53.4.4,0,0,1,0-.2.52.52,0,0,1,.33-.31.62.62,0,0,1,.47,0,.64.64,0,0,1,.4.45.84.84,0,0,1,0,.55.54.54,0,0,1-.45.34,1.06,1.06,0,0,1-.56,0,1.63,1.63,0,0,1-.5-.28,1.45,1.45,0,0,1-.34-.41,1.22,1.22,0,0,1-.06-1,1.41,1.41,0,0,1,.55-.72,1,1,0,0,1,1-.14,1.29,1.29,0,0,1,.82.73.85.85,0,0,1,.26-.12.74.74,0,0,1,.45,0,.8.8,0,0,1,.41.31,1.21,1.21,0,0,1,.09.19c0,.06,0,.12.06.19l.24-.68-3.58-1.26-2.44-.56L59.81,16c0,.06,0,.07,0,.07a1.08,1.08,0,0,0,.38-.1,1.78,1.78,0,0,0,.41-.21l.28-.2c.23-.17.31-.2.38-.18l0,0a1.43,1.43,0,0,1,.45.8,1.93,1.93,0,0,1,.09.93A1.74,1.74,0,0,1,61,18.4a1.79,1.79,0,0,1-.86.19,3.38,3.38,0,0,1-.76-.1c-.91-.21-1.47-1.09-1.67-2.61a10.16,10.16,0,0,1,.1-1.65v-.07a5.63,5.63,0,0,0-1.24.35,1.88,1.88,0,0,0-.79,1,3.29,3.29,0,0,0-.1.32,2.77,2.77,0,0,0-.06.32,1.08,1.08,0,0,0,.55,1.23h0a.61.61,0,0,1-.07-.39.46.46,0,0,1,.27-.33.75.75,0,0,1,.43-.08.71.71,0,0,1,.45.24.57.57,0,0,1,.16.48.65.65,0,0,1-.38.51,1,1,0,0,1-.49.12h-.18a1.59,1.59,0,0,1-1.36-1.38,3.2,3.2,0,0,1,0-1.15,2.61,2.61,0,0,1,1.06-1.56l-1.3-.18,0,0-.38,0-.29,4.56-.39-.51a2.2,2.2,0,0,0-.63-1.16l-.17-.12-.28-.17a.85.85,0,0,1-.35.24,1.3,1.3,0,0,1-.53.1,1,1,0,0,1-.76-.42,1,1,0,0,1-.08-.23.86.86,0,0,1,0-.22.65.65,0,0,1,0-.2.62.62,0,0,1,.09-.16l.09-.1.1-.11a.52.52,0,0,1,.3-.15,2.58,2.58,0,0,1,.58,0l.17,0a.77.77,0,0,0-.34-.64L51.12,14a1,1,0,0,1-.65-.63l0-.05-.15-.16-.22-.23-.17-.18,4.37.28,0,0,.28,0,.65,0,0,.06,1.91.27-.08-.12,5.11,1.19,0-.09.64.22.3.07,0,0,4.59,1.61.42.81Zm8.26,10.88-.8-1.78.84.68L75.65,28Zm3.17.52a.52.52,0,0,1-.37.18h0a.54.54,0,0,1-.38-.15.75.75,0,0,1-.24-.42.5.5,0,0,1,.14-.45.48.48,0,0,1,.39-.16.67.67,0,0,1,.62.58A.5.5,0,0,1,78.23,28.07Zm9.67,5.67-.83-1.14-3.64,2.65v-.84l0,0,2.47-1.8a1,1,0,0,0,.24-.24.85.85,0,0,0,.11-.21l0-.07,0-.08a.79.79,0,0,0,0-.14,1.51,1.51,0,0,0,0-.19l-.06-.08v-.06l-.21-.25-3.45,2.9-.05-.84,1.51-1.27.09-.16a.86.86,0,0,0,.06-.2.42.42,0,0,0-.06-.36.58.58,0,0,0-.46-.16h0l-1.07,0a.74.74,0,0,1-.38-.05,1.27,1.27,0,0,1-.28-.28c-.24-.29-.22-.77.08-1.47l0-.07.71.11-.16.14a.59.59,0,0,0-.15.31.35.35,0,0,0,0,.28.27.27,0,0,0,.2.08H83l.62,0a1.65,1.65,0,0,0,.24-.29.87.87,0,0,0,.1-.41l-.06-.15-.12-.24L83.68,29l-.12-.16a.94.94,0,0,1-.18-.36.62.62,0,0,1,0-.12.61.61,0,0,1,0-.14l0-.11-.56-.58L79.64,30.7l-.11-.83,2.23-2.17a1,1,0,0,0,.21-.27.78.78,0,0,0,.08-.22l0-.08a.42.42,0,0,0,0-.08.84.84,0,0,0,0-.14c0-.05,0-.12,0-.19L82,26.65v0l-.28-.25-3,3.37,0-.23a2.21,2.21,0,0,1,0-.39c0-.17.06-.41.12-.7a2.78,2.78,0,0,0-.29-1.56,1.92,1.92,0,0,0-.19-.32,1.82,1.82,0,0,0-.26-.29l0,0L78.06,25l.11,0a12.78,12.78,0,0,1,3,.91l.08-.09-1.85-1.67v0l-.94-.76v-.07L75.9,21.6,75,22.87l.91,0h0a6.74,6.74,0,0,1,1.42.24h.05l.39,1.07-.08,0a7.52,7.52,0,0,0-1,.57,2.65,2.65,0,0,0-.37.34,6,6,0,0,0-.39.48,1.42,1.42,0,0,0-.12.2l-.14.29a2.28,2.28,0,0,0-.17.52l0,.22-.41-.51v0a6.43,6.43,0,0,1,1-2.06,1.36,1.36,0,0,1,.19-.2l.22-.18a2.85,2.85,0,0,0-1.09-.09,2.64,2.64,0,0,0-1.18.37l-.12.07-.21-1,1.42-2-1-.64-2.39,3.82-.31-.78,0,0L73.28,21a1,1,0,0,0,.14-.31.84.84,0,0,0,0-.23.46.46,0,0,1,0-.08.51.51,0,0,0,0-.09.91.91,0,0,0,0-.13l-.07-.18-.09-.05v-.05l-.31-.16-2.16,4-.14-.61v0a2.2,2.2,0,0,0-.09-1.32l-.11-.18-.18-.27a.88.88,0,0,1-.42.07,1.25,1.25,0,0,1-.52-.13,1,1,0,0,1-.52-.7,1,1,0,0,1,0-.24.86.86,0,0,1,.08-.21.65.65,0,0,1,.28-.27l.26-.12a.52.52,0,0,1,.34,0,2.54,2.54,0,0,1,.54.2l.14.09a.77.77,0,0,0,0-.73s-.07-.08-.62-.66a1,1,0,0,1-.33-.84l0-.07-.07-.2-.1-.3L69.19,17,73,19h0l.08,0,.78.42.11.44.06-.14.57-.92.16.43,0,0-.08.19,0,0a.84.84,0,0,0,0,.12.63.63,0,0,0,0,.32l.15.09,0-.12,4.16,3v0l3.06,2.76h0l.09.09.61.55,0,.48.09-.12.78-.76.06.46,0,0-.16.21-.07.11a.62.62,0,0,0-.07.31l.18.19v-.14l3,3.53h0l.63.75v.41l.05-.05.87-.64v.46l-.21.21-.09.1a.63.63,0,0,0-.12.3l.47.64Z"/><path d="M70.92,18.91a2.69,2.69,0,0,1,.17.55,1.91,1.91,0,0,1-.22,1.24l-.08.11.11.27.09.24a3.11,3.11,0,0,1,.1.37l1.25-2.32-1.6-.86C70.81,18.65,70.87,18.78,70.92,18.91Z"/><path d="M79.23,27.15a3.75,3.75,0,0,1,0,.91l1.31-1.45a5.75,5.75,0,0,0-1.64-.5A4,4,0,0,1,79.23,27.15Z"/></g></g></g></svg>